<?xml version="1.0" encoding="utf-8"?>
<!-- Generator: Adobe Illustrator 22.0.1, SVG Export Plug-In . SVG Version: 6.00 Build 0)  -->
<svg version="1.1" xmlns="http://www.w3.org/2000/svg" xmlns:xlink="http://www.w3.org/1999/xlink" x="0px" y="0px"
	 viewBox="0 0 207.8 36.2" style="enable-background:new 0 0 207.8 36.2;" xml:space="preserve">
<style type="text/css">
	.st0{fill:#FFFFFF;}
	.st1{fill:none;stroke:#FFFFFF;}
	.st2{fill:#7CD1E4;}
	.st3{fill:#2293B2;}
	.st4{fill:#ECA23B;}
</style>
<g id="Layer_1">
	<path id="Path_23" class="st0" d="M174,12.1v1.6h2.5v0.9H174V17h-0.9v-5.7h3.9v0.9L174,12.1L174,12.1z"/>
	<path id="Path_24" class="st0" d="M184.3,13.2c0,0.8-0.4,1.5-1.2,1.8l1.5,2.1h-1.3l-1.3-1.9h-1.2v1.9h-1v-5.7h2.1
		c0.7,0,1.4,0.1,1.9,0.4C184.2,12,184.3,12.4,184.3,13.2z M183,13.9c0.2-0.2,0.3-0.5,0.3-0.7c0-0.3-0.1-0.6-0.3-0.7
		c-0.1-0.1-0.6-0.1-1-0.1h-1.2v2.1h1.2C182.3,14.3,182.7,14.1,183,13.9z"/>
	<path id="Path_25" class="st0" d="M191.4,11.2v0.9h-3v1.5h2.7v0.9h-2.7V16h3.1v0.9h-4.2v-5.7H191.4z"/>
	<path id="Path_26" class="st0" d="M198.4,11.2v0.9h-3v1.5h2.7v0.9h-2.7V16h3.1v0.9h-4.2v-5.7H198.4z"/>
	<path id="Path_27" class="st0" d="M175.8,21.6v4.8h-0.9v-4.8h-1.8v-0.9h4.5v0.9C177.6,21.6,175.8,21.6,175.8,21.6z"/>
	<path id="Path_28" class="st0" d="M184.8,22.6c0,0.8-0.4,1.5-1.2,1.8l1.5,2.1h-1.2l-1.3-1.9h-1.3v1.9h-0.9v-5.7h2.1
		c0.7,0,1.4,0.1,1.9,0.4C184.6,21.4,184.8,21.9,184.8,22.6z M183.4,23.4c0.2-0.2,0.3-0.5,0.3-0.7c0-0.3-0.1-0.6-0.3-0.7
		c-0.1-0.1-0.6-0.1-1-0.1h-1.2V24h1.2C182.8,23.7,183.1,23.6,183.4,23.4L183.4,23.4z"/>
	<path id="Path_29" class="st0" d="M188.7,25.1l-0.6,1.3h-1l2.5-5.7h1l2.5,5.7h-1l-0.6-1.3L188.7,25.1z M191.1,24.2l-1-2.4l-1,2.4
		H191.1z"/>
	<path id="Path_30" class="st0" d="M199.9,21.4c0.6,0.5,1,1.3,0.9,2.1c0,0.8-0.2,1.5-0.7,2.1c-0.7,0.5-1.5,0.8-2.4,0.7h-1.9v-5.7
		h1.9C198.4,20.7,199.2,20.9,199.9,21.4z M199.7,23.5c0-1.3-0.7-1.9-2.2-1.9h-0.9v3.9h1c0.6,0,1.2-0.1,1.6-0.4
		C199.6,24.6,199.8,24,199.7,23.5L199.7,23.5z"/>
	<path id="Path_31" class="st0" d="M207.6,20.7v0.9h-3v1.5h2.7V24h-2.7v1.5h3.1v0.9h-4.2v-5.7H207.6z"/>
	<path id="Path_32" class="st0" d="M176.4,31.1h-3.3v-0.9h4.6V31l-3.3,4h3.4v0.9H173v-0.8L176.4,31.1z"/>
	<path id="Path_33" class="st0" d="M185.4,35.2c-0.5,0.6-1.3,0.9-2.1,0.9c-0.8,0.1-1.6-0.3-2.1-0.9c-0.6-0.5-0.9-1.3-0.9-2.1
		s0.3-1.6,0.9-2.1c0.5-0.6,1.3-0.9,2.1-0.9c0.8-0.1,1.6,0.3,2.1,0.9c0.6,0.5,0.9,1.3,0.9,2.1C186.3,33.9,186,34.6,185.4,35.2z
		 M184.8,31.6c-0.8-0.9-2.2-0.9-3.1-0.1c-0.9,0.8-0.9,2.2-0.1,3.1s2.2,0.9,3.1,0.1c0.4-0.4,0.7-1,0.7-1.6
		C185.3,32.5,185.1,32,184.8,31.6L184.8,31.6z"/>
	<path id="Path_34" class="st0" d="M193.5,30.2h0.9v5.7h-1.1l-3.1-4.2v4.2h-0.9v-5.7h0.9l3.3,4.3L193.5,30.2z"/>
	<path id="Path_35" class="st0" d="M201.7,30.2v0.9h-3v1.5h2.7v0.9h-2.7V35h3.1v0.9h-4.2v-5.7H201.7L201.7,30.2z"/>
	<path id="Path_36" class="st0" d="M88.5,25.4c0,1.1-0.2,2.1-0.7,3.1c-0.4,1-1,1.8-1.8,2.6c-0.7,0.7-1.6,1.3-2.6,1.8
		c-1,0.4-2,0.7-3.1,0.7s-2.1-0.2-3.1-0.7c-1-0.4-1.9-1-2.6-1.8c-0.7-0.7-1.3-1.6-1.8-2.6c-0.4-1-0.7-2-0.7-3.1V11.3h-2v13.8
		c0,1.3,0.3,2.7,0.8,3.9c0.5,1.2,1.2,2.3,2.2,3.2c0.9,0.9,2,1.6,3.2,2.2c1.3,0.6,2.7,0.8,4.1,0.8c1.3,0,2.7-0.3,3.9-0.8
		c1.2-0.5,2.3-1.2,3.2-2.2c0.9-0.9,1.6-2,2.2-3.2c0.5-1.2,0.8-2.6,0.8-3.9V11.3h-2V25.4L88.5,25.4z"/>
	<path id="Path_37" class="st0" d="M108.8,11.3L98,34.8h2.3l3.1-6.8h12.3l3.1,6.8h2.3l-10.8-23.5C110.3,11.3,108.8,11.3,108.8,11.3z
		 M104.4,26l5.3-11.5L115,26H104.4z"/>
	<path id="Path_38" class="st0" d="M149.9,27.3c0.5-1.3,0.8-2.8,0.8-4.2c0-1.6-0.3-3.2-0.9-4.7c-0.6-1.5-1.5-2.8-2.6-3.9
		c-1.2-1.1-2.5-1.9-3.9-2.6c-3-1.3-6.4-1.3-9.5,0c-1.4,0.6-2.8,1.5-3.9,2.6c-1.1,1.1-2,2.4-2.6,3.9c-1.3,3-1.3,6.4,0,9.5
		c0.6,1.4,1.5,2.8,2.6,3.9c1.1,1.1,2.4,2,3.9,2.6c1.5,0.6,3.1,1,4.7,0.9c1.4,0,2.9-0.3,4.2-0.8s2.5-1.2,3.6-2l2.8,2.7l1.4-1.5
		l-2.7-2.7C148.7,29.8,149.4,28.6,149.9,27.3z M140.3,23.5l-1.5,1.5l6.1,5.9c-0.9,0.7-1.9,1.3-3,1.8c-1.1,0.4-2.2,0.6-3.4,0.7
		c-1.3,0-2.7-0.3-3.9-0.8c-1.2-0.6-2.3-1.3-3.2-2.2c-0.9-0.9-1.7-2-2.2-3.2c-1.1-2.5-1.1-5.3,0-7.8c1-2.4,3-4.4,5.4-5.4
		c2.5-1.1,5.3-1.1,7.8,0c1.2,0.6,2.3,1.3,3.2,2.2c0.9,0.9,1.7,2,2.2,3.2s0.8,2.6,0.8,3.9c0,1.1-0.2,2.3-0.5,3.4c-0.5,1-1,2-1.6,3
		L140.3,23.5z"/>
	<line id="Line_17" class="st1" x1="163.2" y1="11.7" x2="163.2" y2="36.2"/>
</g>
<g id="Layer_2">
	<path id="Path_18768" class="st2" d="M46.1,14.9l-0.9,0.9l7,7l11.4-11.4h-7.4C52.1,11.4,49.4,11.6,46.1,14.9z"/>
	<path id="Path_18769" class="st3" d="M27.9,4c0.8,0.8,21.7,21.6,21.7,21.6l-7,6.9L10.4,0.4h7.4C21.9,0.4,24.6,0.7,27.9,4z"/>
	<path id="Path_18770" class="st4" d="M22.6,19l-5-5c-3.4-3.3-6-3.6-10.2-3.6H0L19.8,30l2.2,2.2c3.4,3.3,6,3.6,10.2,3.6h7.4L22.6,19
		z"/>
</g>
</svg>
